<svg version="1" xmlns="http://www.w3.org/2000/svg" width="192" height="192" viewBox="0 0 144.000000 144.000000"><path d="M30.7 15.4c-9.1 2.7-18.9 11.2-23.5 20.5-2.3 4.8-2.7 6.9-2.7 14.1 0 7.3.4 9.3 2.8 14 1.5 3 4.7 7.7 7.1 10.4l4.4 5 6.6-6.5c7.4-7.1 11.4-9.1 16.1-7.8C46 66.4 50 71.3 50 75.5c0 1.9.3 3.4.8 3.4 5.5-.9 12.2 5 12.2 10.7 0 2.8.4 3.4 2 3.4 5.5 0 11 5.7 11 11.5 0 2 .5 2.5 2.4 2.5 2 0 6.9 2.9 8.6 5.1 2.5 3.1 8 2.6 9.9-1 2.5-4.5 1.4-6.2-13.4-20.5C70.1 77.5 66.7 73 70.5 73c.8 0 8.1 6.4 16.1 14.2 8 7.9 15.5 14.8 16.7 15.4 2.5 1.4 6.3.3 8.3-2.4 3-3.9 1.7-5.9-13.8-21.8-8.4-8.6-15.3-16.1-15.3-16.7 0-3.6 4.4-.5 17 12.3 7.7 7.8 15 14.3 16.2 14.6 2.6.7 5.9-.9 7.3-3.6 1.7-3.2-.5-6.6-12.9-19.3-6.5-6.7-15-15.4-18.7-19.4l-6.9-7.1L74 49.7c-5.8 5.8-11.5 10.9-12.7 11.4-6.8 2.6-15.3-4.6-13.9-11.6.3-1.1.5-2.4.5-2.8.1-.5 4.5-5.2 9.9-10.4l9.7-9.5-4.5-4c-2.5-2.3-6.5-5-9-6.1-5.6-2.5-16.8-3.1-23.3-1.3z"/><path d="M97.9 14.4c-.2.2-1.8.6-3.5.9-4.1.6-11.1 3.9-15.4 7.1-5 3.9-27 25.6-27.1 27-.5 4.2 2.3 7.6 6 7.6 2 0 5.3-2.7 14.1-11.5C78.3 39.2 84 34 84.6 34c.9 0 8 7.2 39.7 40.1 1.5 1.6 2.9 2.9 3.2 2.9 1 0 7.8-13.5 9-18.1 1.8-6.9 1-16-2.1-22.4-3.1-6.7-12.3-15.8-19-19-4.4-2.1-16.3-4.2-17.5-3.1zM35.5 69.9c-1.1.5-4.6 3.6-7.7 6.9-6.6 6.9-7.4 10.3-3.5 14 4 3.7 7 2.9 14.2-4.1 7.9-7.5 9.1-11.2 5.2-15.1-2.7-2.7-4.7-3.1-8.2-1.7zM48.5 84c-1.1.5-4.4 3.3-7.2 6.3-6.3 6.5-7 10.2-2.7 13.6 4.1 3.2 6.4 2.6 13.1-3.7 7-6.5 8-8.9 5.9-13-2.1-4.1-4.9-5-9.1-3.2zM61.5 97.9c-3.3 1.4-10.5 9.8-10.5 12.4 0 5.5 5.8 8.9 10.8 6.3 3.7-2.1 7.9-6.6 9.1-9.9 1.3-3.4-.2-7-3.6-8.6-2.7-1.3-3.1-1.3-5.8-.2zM75.5 112c-3.9 1.6-8.5 6.5-9.1 9.7-.5 2.6-.1 3.7 2.1 5.8 3.5 3.6 7.8 2.9 12.2-2.1 3.5-4 4.3-6.8 3-10-.7-1.7-4.9-4.7-6-4.3-.1 0-1.1.4-2.2.9z"/></svg>