<?xml version="1.0" standalone="no"?>
<!DOCTYPE svg PUBLIC "-//W3C//DTD SVG 20010904//EN"
 "http://www.w3.org/TR/2001/REC-SVG-20010904/DTD/svg10.dtd">
<svg version="1.0" xmlns="http://www.w3.org/2000/svg"
 width="150.000000pt" height="150.000000pt" viewBox="0 0 150.000000 150.000000"
 preserveAspectRatio="xMidYMid meet">
<metadata>
Created by potrace 1.11, written by Peter Selinger 2001-2013
</metadata>
<g transform="translate(0.000000,150.000000) scale(0.100000,-0.100000)"
fill="#000000" stroke="none">
<path d="M321 1311 c-92 -35 -172 -108 -218 -201 -24 -47 -28 -67 -28 -140 0
-73 4 -93 28 -140 15 -30 47 -77 72 -104 l44 -50 66 65 c72 71 113 91 160 78
43 -12 85 -62 85 -102 0 -28 4 -33 28 -35 53 -4 116 -79 104 -124 -3 -13 1
-18 17 -18 56 0 111 -57 111 -115 0 -19 5 -25 23 -25 25 0 63 -23 88 -53 21
-27 68 -25 91 3 37 46 27 64 -127 214 -80 79 -145 148 -145 154 0 7 7 15 15
18 10 4 65 -43 165 -142 83 -82 161 -152 173 -155 40 -11 86 26 87 69 0 21
-78 106 -309 338 -2 2 2 11 9 19 12 14 31 -2 161 -131 126 -125 152 -147 178
-147 17 0 39 7 49 17 17 14 19 28 13 70 0 5 -64 72 -140 150 -77 77 -162 165
-189 194 -27 28 -54 52 -58 52 -5 0 -55 -47 -112 -105 -67 -67 -113 -106 -132
-110 -64 -14 -136 53 -126 116 6 38 11 45 116 147 l84 83 -39 37 c-92 85 -231
115 -344 73z"/>
<path d="M980 1319 c-54 -11 -134 -49 -175 -84 -77 -66 -254 -248 -258 -266
-6 -23 25 -65 55 -72 18 -5 43 15 143 113 67 66 125 120 130 120 6 0 105 -98
221 -217 l211 -217 27 47 c110 187 93 346 -53 484 -86 82 -190 113 -301 92z"/>
<path d="M320 715 c-57 -56 -70 -74 -70 -99 1 -42 21 -66 64 -73 33 -5 39 -1
106 64 75 74 86 102 53 142 -10 11 -33 24 -50 27 -30 6 -38 1 -103 -61z"/>
<path d="M453 576 c-71 -71 -81 -106 -40 -144 40 -38 69 -29 142 43 59 59 65
68 60 98 -8 42 -27 60 -67 63 -28 2 -42 -6 -95 -60z"/>
<path d="M594 447 c-59 -59 -67 -89 -36 -126 21 -26 57 -34 86 -20 23 12 95
86 97 100 1 5 2 15 3 22 3 19 -23 67 -37 68 -6 0 -23 2 -36 5 -18 3 -36 -8
-77 -49z"/>
<path d="M759 336 c-70 -48 -86 -100 -44 -142 43 -43 112 -16 148 58 19 39 6
81 -29 97 -33 15 -34 15 -75 -13z"/>
</g>
</svg>
